<?xml version="1.0" encoding="UTF-8" standalone="no"?>
<svg
   version="1.0"
   width="463.0076"
   height="539.49902"
   viewBox="0 0 463.0076 539.49902"
   preserveAspectRatio="xMidYMid"
   id="svg11"
   sodipodi:docname="FreeSample-Vectorizer-io-Gemini_Generated_Image_gsyi5sgsyi5sgsyi.svg"
   inkscape:version="1.4.3 (0d15f75, 2025-12-25)"
   xmlns:inkscape="http://www.inkscape.org/namespaces/inkscape"
   xmlns:sodipodi="http://sodipodi.sourceforge.net/DTD/sodipodi-0.dtd"
   xmlns="http://www.w3.org/2000/svg"
   xmlns:svg="http://www.w3.org/2000/svg">
  <defs
     id="defs11" />
  <sodipodi:namedview
     id="namedview11"
     pagecolor="#ffffff"
     bordercolor="#000000"
     borderopacity="0.25"
     inkscape:showpageshadow="2"
     inkscape:pageopacity="0.0"
     inkscape:pagecheckerboard="true"
     inkscape:deskcolor="#d1d1d1"
     inkscape:zoom="1.4108392"
     inkscape:cx="93.206939"
     inkscape:cy="265.44486"
     inkscape:window-width="1920"
     inkscape:window-height="1009"
     inkscape:window-x="3192"
     inkscape:window-y="-8"
     inkscape:window-maximized="1"
     inkscape:current-layer="g24" />
  <g
     fill="#ffffff"
     id="g11"
     transform="translate(-280.925,-17.150964)">
    <g
       id="g24">
      <path
         style="display:inline;fill:#4272ac;fill-opacity:1"
         d="m 520.7,147.8 c 3.65,-1.86 7.44,-6.18 8.71,-9.97 0.97,-2.83 1.19,-7.96 1.19,-31.7 0,-28.28 0,-28.28 6.92,-21.51 7,6.92 9.67,8.41 15.11,8.41 5.8,0 12.87,-4.47 15.7,-9.97 0.67,-1.19 1.34,-4.32 1.56,-6.85 0.6,-8.04 -0.52,-9.6 -24.63,-34.23 -24.19,-24.63 -25.15,-25.3 -34.01,-24.71 -2.68,0.22 -6.03,0.97 -7.44,1.64 -1.41,0.74 -12.28,11.09 -24.11,23 -16.22,16.45 -21.88,22.62 -23.22,25.45 -3.05,6.4 -2.08,13.62 2.53,18.98 3.8,4.47 7.74,6.25 13.54,6.25 6.25,0 8.48,-1.19 15.78,-8.71 5.8,-6.03 5.8,-6.03 5.8,22.62 0,27.16 0.07,28.73 1.56,31.93 2.38,5.28 6.18,8.63 11.83,10.49 2.83,0.97 10.57,0.3 13.17,-1.12 z"
         id="path23" />
      <path
         style="display:inline;fill:#4272ac;fill-opacity:1"
         d="m 694.84,341.51 c 2.38,-1.12 9.53,-7.81 23.89,-22.33 11.24,-11.39 21.21,-21.88 22.18,-23.22 3.65,-5.43 4.02,-11.76 0.97,-17.86 -2.01,-3.94 -42.2,-44.5 -46.81,-47.26 -2.83,-1.71 -4.24,-2.01 -8.93,-2.01 -4.76,0 -6.1,0.3 -9.08,2.08 -6.92,4.02 -10.49,12.13 -8.78,19.72 0.82,3.8 1.56,4.84 7.07,10.42 7,7 10.94,6.18 -29.84,6.47 -20.76,0.15 -21.8,0.22 -25.08,1.79 -6.92,3.35 -11.68,11.91 -10.57,18.9 0.74,4.32 3.8,9.82 6.85,12.13 5.28,4.02 5.36,4.02 36.47,4.02 28.87,0 28.87,0 22.77,6.18 -6.77,6.85 -7.29,7.74 -8.04,12.5 -1.34,8.93 4.84,17.71 13.99,20.09 3.57,0.89 9.23,0.15 12.95,-1.64 z"
         id="path22" />
      <path
         style="display:inline;fill:#4272ac;fill-opacity:1"
         d="m 343.51,342.7 c 4.61,-1.34 9.75,-5.66 11.53,-9.6 1.93,-4.24 1.86,-11.01 -0.15,-15.11 -0.89,-1.86 -3.94,-5.36 -7.07,-8.26 -5.58,-4.99 -5.58,-4.99 24.48,-5.36 30.07,-0.37 30.07,-0.37 33.71,-2.6 5.28,-3.27 7.96,-8.04 8.33,-14.66 0.37,-6.55 -1.12,-10.72 -5.21,-14.36 -5.8,-5.28 -5.13,-5.21 -37.21,-5.13 -15.93,0.07 -28.87,0 -28.87,-0.15 0,-0.22 2.38,-2.53 5.28,-5.28 6.4,-6.1 8.33,-9.6 8.33,-15.11 0,-12.43 -11.53,-21.06 -23.59,-17.56 -4.91,1.41 -7.37,3.65 -32.89,29.54 -9.6,9.75 -16.97,17.93 -17.86,19.65 -1.86,3.94 -1.86,11.61 0,15.18 1.64,3.05 40.48,43.16 44.58,45.99 2.75,1.93 8.26,3.8 11.39,3.87 0.82,0.07 3.2,-0.45 5.21,-1.04 z"
         id="path21" />
      <path
         style="display:inline;fill:#4272ac;fill-opacity:1"
         d="m 520.18,405.58 c 18.38,-2.08 33.41,-9.45 46.51,-22.7 10.57,-10.57 16.45,-21.21 20.61,-36.91 1.56,-6.1 1.64,-7.52 1.93,-55.74 0.22,-52.69 0.07,-55.89 -3.27,-67.65 -8.04,-27.61 -28.65,-47.7 -55.89,-54.55 -5.43,-1.41 -8.56,-1.64 -18.08,-1.64 -10.05,0.07 -12.5,0.3 -18.9,2.01 -27.24,7.29 -47.93,28.28 -55.29,56.11 -1.86,7.14 -1.93,8.04 -2.6,43.39 -1.12,57.45 -0.37,71.96 4.17,85.43 9.6,28.2 35.57,49.12 64.82,52.24 7.67,0.82 9.08,0.82 16,0 z"
         id="path20" />
      <path
         style="display:inline;fill:#4272ac;fill-opacity:1"
         d="m 521,554.64 c 4.99,-2.68 45.54,-44.28 47.55,-48.74 1.79,-3.94 1.93,-11.46 0.3,-15.33 -1.56,-3.87 -5.21,-7.44 -9.6,-9.53 -7.89,-3.72 -14.88,-1.49 -23,7.22 -2.6,2.83 -4.91,5.13 -5.21,5.13 -0.22,0 -0.52,-13.17 -0.6,-29.25 -0.22,-29.32 -0.22,-29.32 -2.46,-32.89 -3.5,-5.66 -7.52,-8.11 -13.84,-8.41 -6.92,-0.45 -10.79,1.12 -15.03,5.8 -1.79,1.93 -3.65,4.91 -4.09,6.55 -0.6,2.01 -0.89,11.39 -0.89,30.59 0,15.18 -0.15,27.61 -0.3,27.61 -0.15,0 -3.05,-2.83 -6.47,-6.25 -4.99,-4.91 -7,-6.47 -9.6,-7.14 -8.41,-2.23 -17.56,1.93 -21.73,9.97 -2.16,4.17 -2.01,11.76 0.3,16.3 1.12,2.23 9.15,11.01 22.7,25 23.67,24.19 25.23,25.38 33.56,25.38 3.8,0 5.58,-0.45 8.41,-2.01 z"
         id="path2" />
    </g>
    <path
       d="m 498.46,386.98 c -18.16,-4.47 -33.93,-17.86 -41.08,-34.83 -4.24,-9.97 -4.76,-14.73 -5.06,-41.45 -0.22,-24.56 -0.22,-24.56 6.1,-25.08 3.5,-0.3 30.44,-0.45 59.91,-0.37 53.58,0.15 53.58,0.15 53.58,26.94 0,26.79 0,26.79 -2.53,34.01 -7.29,21.06 -22.62,35.57 -43.09,40.86 -7.44,1.86 -19.87,1.86 -27.83,-0.07 z"
       id="path4"
       style="display:inline" />
    <path
       d="m 452.47,268.5 c -0.07,-0.15 -0.07,-7.07 -0.15,-15.48 0,-16.52 0.67,-21.43 4.24,-30.96 7.07,-18.75 25.45,-34.46 44.5,-37.88 2.75,-0.52 2.75,-0.52 2.75,10.05 0,10.49 0,10.49 -2.6,12.95 -2.6,2.46 -2.6,2.46 -2.6,20.17 0,17.64 0,17.64 2.6,20.24 2.6,2.6 2.6,2.6 2.6,11.83 0,9.23 0,9.23 -25.67,9.23 -14.14,0 -25.67,-0.07 -25.67,-0.15 z"
       id="path5"
       style="display:inline" />
    <path
       d="m 520.71,268.13 c -0.3,-0.22 -0.52,-4.39 -0.52,-9.08 0,-8.71 0,-8.71 2.6,-11.16 1.41,-1.34 2.83,-3.2 3.05,-4.09 0.22,-0.89 0.3,-8.93 0.15,-17.86 -0.22,-16.22 -0.22,-16.22 -2.98,-18.68 -2.83,-2.38 -2.83,-2.38 -2.83,-13.02 0,-10.57 0,-10.57 3.5,-10.05 4.84,0.74 11.61,3.27 17.79,6.7 6.77,3.72 17.64,14.59 21.66,21.58 7.29,12.73 9.15,21.21 9.15,41.75 0,14.44 0,14.44 -25.53,14.44 -14.07,0 -25.82,-0.22 -26.05,-0.52 z"
       id="path6"
       style="display:inline" />
  </g>
</svg>
