<?xml version="1.0" encoding="UTF-8" standalone="no"?>
<svg
   version="1.0"
   width="154.55713"
   height="239.795"
   viewBox="0 0 154.55713 239.795"
   preserveAspectRatio="xMidYMid"
   id="svg11"
   sodipodi:docname="mouse-gesture-icon-simple.svg"
   inkscape:version="1.4.3 (0d15f75, 2025-12-25)"
   xmlns:inkscape="http://www.inkscape.org/namespaces/inkscape"
   xmlns:sodipodi="http://sodipodi.sourceforge.net/DTD/sodipodi-0.dtd"
   xmlns="http://www.w3.org/2000/svg"
   xmlns:svg="http://www.w3.org/2000/svg">
  <defs
     id="defs11" />
  <sodipodi:namedview
     id="namedview11"
     pagecolor="#ffffff"
     bordercolor="#000000"
     borderopacity="0.25"
     inkscape:showpageshadow="2"
     inkscape:pageopacity="0.0"
     inkscape:pagecheckerboard="true"
     inkscape:deskcolor="#d1d1d1"
     inkscape:zoom="2.8216784"
     inkscape:cx="48.375463"
     inkscape:cy="117.12887"
     inkscape:window-width="1920"
     inkscape:window-height="1009"
     inkscape:window-x="3192"
     inkscape:window-y="-8"
     inkscape:window-maximized="1"
     inkscape:current-layer="g11" />
  <g
     fill="#ffffff"
     id="g11"
     transform="translate(-434.73928,-166.39)">
    <path
       id="path10"
       style="display:inline;fill:#ffffff"
       d="M 511.98928 166.39 C 501.93928 166.46 499.49084 166.68977 493.09084 168.39977 C 465.85084 175.68977 445.15983 196.67914 437.79983 224.50914 C 435.93983 231.64914 435.87022 232.54977 435.20022 267.89977 C 434.08022 325.34977 434.83014 339.85945 439.37014 353.32945 C 448.97014 381.52945 474.94045 402.44969 504.19045 405.56969 C 511.86045 406.38969 513.27045 406.38969 520.19045 405.56969 L 520.18069 405.57945 C 538.56069 403.49945 553.59045 396.13023 566.69045 382.88023 C 577.26045 372.31023 583.13983 361.67008 587.29983 345.97008 C 588.85983 339.87008 588.93951 338.44984 589.22951 290.22984 C 589.44951 237.53984 589.30001 234.33945 585.95998 222.57945 C 577.91998 194.96945 557.30936 174.88063 530.06936 168.03062 C 524.63936 166.62062 521.50928 166.39 511.98928 166.39 z M 502.33498 184.00914 C 503.81002 184.03215 503.80959 185.64172 503.80959 194.22984 C 503.80959 204.71984 503.80998 204.71906 501.20998 207.17906 C 498.60998 209.63906 498.61037 209.64094 498.61037 227.35094 C 498.61037 244.99094 498.60998 244.98922 501.20998 247.58922 C 503.80998 250.18922 503.80959 250.1893 503.80959 259.4193 C 503.80959 263.87664 503.80996 266.18249 500.91897 267.37437 C 500.50597 267.54465 500.03456 267.69182 499.49514 267.81969 C 495.99143 268.65019 489.64205 268.64977 478.13967 268.64977 C 463.99967 268.64977 452.46975 268.57937 452.46975 268.49937 C 452.39976 268.34938 452.39936 261.43086 452.31936 253.02086 C 452.31936 236.50086 452.98959 231.58992 456.55959 222.05992 C 463.62959 203.30992 482.00959 187.59906 501.05959 184.17906 C 501.57522 184.08154 501.99459 184.00414 502.33498 184.00914 z M 522.05764 184.01891 C 522.49087 184.01391 523.02444 184.09331 523.68069 184.19078 C 528.52069 184.93078 535.28975 187.46 541.46975 190.89 C 548.23975 194.61 559.10992 205.48008 563.12991 212.47008 C 570.41989 225.20008 572.2803 233.68008 572.2803 254.22008 C 572.2803 268.66008 572.2793 268.65953 546.74905 268.65953 C 532.67905 268.65953 520.93022 268.44 520.70022 268.14 L 520.70998 268.13023 C 520.40998 267.91023 520.19045 263.74016 520.19045 259.05016 C 520.19045 250.34016 520.19006 250.34 522.79006 247.89 C 524.20006 246.55 525.62084 244.69016 525.84084 243.80016 C 526.06084 242.91016 526.13928 234.87078 525.98928 225.94078 C 525.76928 209.72078 525.77076 209.71914 523.01076 207.25914 C 520.18076 204.87914 520.18069 204.87961 520.18069 194.23961 C 520.18069 187.53013 520.18014 185.07956 521.07522 184.31773 C 521.14682 184.25679 521.22411 184.208 521.30764 184.16734 C 521.51645 184.06571 521.76431 184.0225 522.05764 184.01891 z M 518.32912 285.24937 C 571.90912 285.39938 571.9092 285.40078 571.9092 312.19078 C 571.9092 338.98078 571.9099 338.98055 569.37991 346.20055 C 562.08992 367.26055 546.76006 381.76992 526.29006 387.05992 C 522.57006 387.98993 517.60188 388.45547 512.56936 388.44664 C 507.53684 388.43781 502.43998 387.95461 498.45998 386.98961 L 498.45998 386.97984 C 480.29998 382.50984 464.5299 369.11977 457.37991 352.14977 C 453.1399 342.17977 452.61936 337.42055 452.31936 310.70055 C 452.17331 294.39671 452.12522 288.91582 453.95803 286.92125 C 454.03568 286.83675 454.11568 286.75942 454.20022 286.68687 C 455.12614 285.8923 456.47412 285.78065 458.42092 285.62047 C 461.92092 285.32047 488.85912 285.16938 518.32912 285.24937 z " />
  </g>
</svg>
